# xmcd CD database file
#
# Track frame offsets:
#	150
#	13793
#	27971
#	40300
#	54108
#	67433
#	80938
#	94118
#	108234
#	121988
#	134867
#	150531
#	164965
#	178564
#	193449
#	208388
#	223445
#	234274
#	248293
#	264681
#	276892
#	290993
#	305646
#	318720
#
# Disc length: 4444 seconds
#
# Revision: 1
# Processed by: cddbd v1.5.2PL0 Copyright (c) Steve Scherf et al.
# Submitted via: CDex 1.70beta2
#
DISCID=88115a18
DTITLE=Various Artist - Jazz Roads CD121 - Swing - Duke Ellington Small Groups Vol.5 (1940-41)
DYEAR=2006
DGENRE=Jazz
TTITLE0=Duke Ellington and Jimmy Blanton - Pitter Panther Patter
TTITLE1=Duke Ellington and Jimmy Blanton - Body And Soul
TTITLE2=Duke Ellington and Jimmy Blanton - Sophisticated Lady
TTITLE3=Duke Ellington and Jimmy Blanton - Mr. J.B. Blues
TTITLE4=Johnny Hodges And His Orchestra - Day Dream
TTITLE5=Johnny Hodges And His Orchestra - Good Queen Bess
TTITLE6=Johnny Hodges And His Orchestra - That's The Blues Old Man
TTITLE7=Johnny Hodges And His Orchestra - Junior Hop
TTITLE8=Barney Bigard And Orchestra  - Charlie The Chulo
TTITLE9=Barney Bigard And Orchestra  - Lament For Javanette
TTITLE10=Barney Bigard And Orchestra  - A Lull At Dawn
TTITLE11=Barney Bigard And Orchestra  - Ready Eddy
TTITLE12=Rex Stewart And His Orchestra - Some Saturday
TTITLE13=Rex Stewart And His Orchestra - Subtle Slough
TTITLE14=Rex Stewart And His Orchestra - Menelik (The Lion Of Judah)
TTITLE15=Rex Stewart And His Orchestra - Poor Bubber
TTITLE16=Johnny Hodges And His Orchestra - Squatty Roo
TTITLE17=Johnny Hodges And His Orchestra - Passion Flower
TTITLE18=Johnny Hodges And His Orchestra - Things Ain't What They Used To Be
TTITLE19=Johnny Hodges And His Orchestra - Goin' Out The Back Way
TTITLE20=Barney Bigard And His Orchestra - Brown Suede
TTITLE21=Barney Bigard And His Orchestra - Noir Bleu
TTITLE22=Barney Bigard And His Orchestra - 'C' Blues
TTITLE23=Barney Bigard And His Orchestra - June
EXTD=YEAR: 2006
EXTT0=
EXTT1=
EXTT2=
EXTT3=
EXTT4=
EXTT5=
EXTT6=
EXTT7=
EXTT8=
EXTT9=
EXTT10=
EXTT11=
EXTT12=
EXTT13=
EXTT14=
EXTT15=
EXTT16=
EXTT17=
EXTT18=
EXTT19=
EXTT20=
EXTT21=
EXTT22=
EXTT23=
PLAYORDER=
